<svg width="400px" height="400px" viewBox="0 0 400 400" version="1.1" xmlns="http://www.w3.org/2000/svg" xmlns:xlink="http://www.w3.org/1999/xlink">
  <defs>
    <linearGradient x1="0%" y1="50%" x2="100%" y2="50%" id="shadeGradientLight">
      <stop stop-color="#E0DCE0" offset="0%"></stop>
      <stop stop-color="#C1BCC2" offset="16.67%"></stop>
      <stop stop-color="#A29DA3" offset="33.33%"></stop>
      <stop stop-color="#847E85" offset="50%"></stop>
      <stop stop-color="#656066" offset="66.67%"></stop>
      <stop stop-color="#474247" offset="83.33%"></stop>
      <stop stop-color="#282629" offset="100%"></stop>
    </linearGradient>
    <linearGradient x1="0%" y1="50%" x2="100%" y2="50%" id="shadeGradientDark">
      <stop stop-color="#474247" offset="0%"></stop>
      <stop stop-color="#656066" offset="16.67%"></stop>
      <stop stop-color="#847E85" offset="33.33%"></stop>
      <stop stop-color="#A29DA3" offset="50%"></stop>
      <stop stop-color="#C1BCC2" offset="66.67%"></stop>
      <stop stop-color="#E0DCE0" offset="83.33%"></stop>
      <stop stop-color="#FFFCFF" offset="100%"></stop>
    </linearGradient>
  </defs>
  <g id="light">
    <rect fill="#FFFCFF" x="0" y="0" width="400" height="200"></rect>
    <rect fill="#F03E4D" x="28" y="28" width="74" height="37"></rect>
    <rect fill="#F37735" x="118" y="28" width="74" height="37"></rect>
    <rect fill="#EEBA21" x="208" y="28" width="74" height="37"></rect>
    <rect fill="#97BD2D" x="298" y="28" width="74" height="37"></rect>
    <rect fill="#1FC598" x="28" y="81" width="74" height="37"></rect>
    <rect fill="#53A6E1" x="118" y="81" width="74" height="37"></rect>
    <rect fill="#BF65F0" x="208" y="81" width="74" height="37"></rect>
    <rect fill="#EE4EB8" x="298" y="81" width="74" height="37"></rect>
    <rect fill="url(#shadeGradientLight)" x="28" y="134" width="344" height="37"></rect>
  </g>
  <g id="dark" transform="translate(0.000000, 200.000000)">
    <rect fill="#282629" x="0" y="0" width="400" height="200"></rect>
    <rect fill="#FF4050" x="28" y="28" width="74" height="37"></rect>
    <rect fill="#F28144" x="118" y="28" width="74" height="37"></rect>
    <rect fill="#FFD24A" x="208" y="28" width="74" height="37"></rect>
    <rect fill="#A4CC35" x="298" y="28" width="74" height="37"></rect>
    <rect fill="#26C99E" x="28" y="81" width="74" height="37"></rect>
    <rect fill="#66BFFF" x="118" y="81" width="74" height="37"></rect>
    <rect fill="#CC78FA" x="208" y="81" width="74" height="37"></rect>
    <rect fill="#F553BF" x="298" y="81" width="74" height="37"></rect>
    <rect fill="url(#shadeGradientDark)" x="28" y="134" width="344" height="37"></rect>
  </g>
</svg>